<svg aria-hidden="true" style="position: absolute; width: 0; height: 0; overflow: hidden;" version="1.1" xmlns="http://www.w3.org/2000/svg" xmlns:xlink="http://www.w3.org/1999/xlink">
<defs>
<symbol id="icon-background" viewBox="0 0 70 32">
<path d="M1.561 0h66.81c0.862 0 1.561 0.699 1.561 1.561v28.878c0 0.862-0.699 1.561-1.561 1.561h-66.81c-0.862 0-1.561-0.699-1.561-1.561v-28.878c0-0.862 0.699-1.561 1.561-1.561z"></path>
</symbol>
<symbol id="icon-icon-cross" viewBox="0 0 32 32">
<path d="M18.148 16l12.632-12.632c0.25-0.292 0.38-0.666 0.365-1.050s-0.174-0.747-0.445-1.019c-0.271-0.271-0.635-0.43-1.018-0.445s-0.759 0.116-1.050 0.365l-12.632 12.632-12.632-12.648c-0.287-0.287-0.676-0.448-1.082-0.448s-0.795 0.161-1.082 0.448c-0.287 0.287-0.448 0.676-0.448 1.082s0.161 0.795 0.448 1.082l12.648 12.632-12.648 12.632c-0.159 0.136-0.289 0.305-0.381 0.494s-0.143 0.395-0.151 0.605c-0.008 0.21 0.027 0.419 0.104 0.615s0.193 0.373 0.341 0.522c0.149 0.149 0.326 0.265 0.522 0.341s0.405 0.112 0.615 0.104c0.21-0.008 0.416-0.059 0.605-0.151s0.357-0.221 0.494-0.38l12.648-12.632 12.632 12.632c0.291 0.25 0.666 0.38 1.050 0.365s0.747-0.174 1.018-0.445c0.272-0.271 0.43-0.635 0.445-1.019s-0.116-0.758-0.365-1.050l-12.632-12.632z"></path>
</symbol>
<symbol id="icon-video" viewBox="0 0 32 32">
<path fill="#fcfcfc" style="fill: var(--color1, #fcfcfc)" d="M29.897 13.806l-26.537-13.269c-0.358-0.166-0.752-0.24-1.146-0.214s-0.775 0.148-1.109 0.359c-0.334 0.21-0.61 0.5-0.803 0.845s-0.297 0.731-0.302 1.126v26.526c-0.003 0.405 0.098 0.804 0.294 1.158s0.48 0.652 0.825 0.865 0.738 0.333 1.143 0.349c0.405 0.016 0.807-0.073 1.167-0.258l26.469-13.269c0.392-0.197 0.722-0.499 0.952-0.872s0.352-0.803 0.352-1.242-0.122-0.869-0.352-1.242c-0.23-0.373-0.56-0.675-0.952-0.872v0.011z"></path>
</symbol>
</defs>
</svg>
